<?xml version="1.0" encoding="UTF-8" standalone="no"?>
<svg
   xmlns:dc="http://purl.org/dc/elements/1.1/"
   xmlns:cc="http://creativecommons.org/ns#"
   xmlns:rdf="http://www.w3.org/1999/02/22-rdf-syntax-ns#"
   xmlns:svg="http://www.w3.org/2000/svg"
   xmlns="http://www.w3.org/2000/svg"
   xmlns:xlink="http://www.w3.org/1999/xlink"
   width="128"
   height="128"
   id="svg2"
   version="1.1">
  <defs
     id="defs4">
    <linearGradient
       id="linearGradient3955">
      <stop
         style="stop-color:#032a63;stop-opacity:1;"
         offset="0"
         id="stop3957" />
      <stop
         style="stop-color:#0846a4;stop-opacity:1;"
         offset="1"
         id="stop3959" />
    </linearGradient>
    <linearGradient
       xlink:href="#linearGradient3955"
       id="linearGradient3961"
       x1="66.922607"
       y1="1051.7493"
       x2="63.602776"
       y2="924.7226"
       gradientUnits="userSpaceOnUse" />
    <linearGradient
       xlink:href="#linearGradient3955"
       id="linearGradient3065"
       gradientUnits="userSpaceOnUse"
       x1="66.922607"
       y1="1051.7493"
       x2="63.602776"
       y2="924.7226" />
    <linearGradient
       xlink:href="#linearGradient3955"
       id="linearGradient2997"
       gradientUnits="userSpaceOnUse"
       x1="66.922607"
       y1="1051.7493"
       x2="63.602776"
       y2="924.7226" />
  </defs>
  <metadata
     id="metadata7">
    <rdf:RDF>
      <cc:Work
         rdf:about="">
        <dc:format>image/svg+xml</dc:format>
        <dc:type
           rdf:resource="http://purl.org/dc/dcmitype/StillImage" />
        <dc:title></dc:title>
      </cc:Work>
    </rdf:RDF>
  </metadata>
  <g
     id="layer1"
     transform="translate(0,-924.36218)">
    <g
       id="g3911"
       transform="translate(32,-32.000001)">
      <rect
         y="956.36218"
         x="-32"
         height="128"
         width="128"
         id="rect2985-1"
         style="fill:#000000;fill-opacity:1;stroke:none" />
      <g
         transform="scale(0.75316716,1.3277265)"
         style="font-size:48.78742981px;font-style:normal;font-variant:normal;font-weight:bold;font-stretch:normal;line-height:125%;letter-spacing:0px;word-spacing:0px;fill:#ffff00;fill-opacity:1;stroke:none;font-family:hhh;-inkscape-font-specification:hhh Bold"
         id="text3755-7" />
      <path
         id="rect3013-0"
         d="m -28,960.3622 0,8 0,104 0,8 8,0 112,0 0,-8 0,-112 -112,0 -8,0 z m 8,8 104,0 0,104 -104,0 0,-104 z"
         style="fill:#ffff00;fill-opacity:1;stroke:none" />
    </g>
    <g
       id="text826"
       style="font-style:normal;font-weight:normal;font-size:81.69800568px;line-height:1.25;font-family:sans-serif;letter-spacing:0px;word-spacing:0px;fill:#ffff00;fill-opacity:1;stroke:none;stroke-width:2.04245019"
       transform="matrix(0.70218294,0,0,1.4241303,121.81105,13.806446)"
       aria-label="G">
      <path
         id="path828"
         style="font-style:normal;font-variant:normal;font-weight:bold;font-stretch:normal;font-family:sans-serif;-inkscape-font-specification:'sans-serif Bold';fill:#ffff00;stroke-width:2.04245019"
         d="m -53.847864,709.62763 q -5.744391,2.79242 -11.92759,4.18862 -6.183199,1.39621 -12.765313,1.39621 -14.879569,0 -23.575943,-8.29745 -8.69637,-8.33735 -8.69637,-22.57865 0,-14.40087 8.85594,-22.65843 8.855937,-8.25757 24.254096,-8.25757 5.943849,0 11.369107,1.11697 5.46515,1.11696 10.292034,3.311 v 12.32651 q -4.98645,-2.83231 -9.933009,-4.22851 -4.906667,-1.39621 -9.853226,-1.39621 -9.175069,0 -14.16152,5.14602 -4.946559,5.10612 -4.946559,14.64022 0,9.45431 4.786993,14.60032 4.786992,5.14602 13.603037,5.14602 2.393496,0 4.427968,-0.27924 2.074363,-0.31913 3.709919,-0.9574 V 691.2775 h -9.374527 v -10.29204 h 23.934963 z" />
    </g>
  </g>
</svg>
